<?xml version="1.0" encoding="UTF-8"?>
<svg id="Layer_2" xmlns="http://www.w3.org/2000/svg" viewBox="0 0 855.83 279.83">
  <defs>
    <style>
      .cls-1 {
        fill: #0e172b;
      }
    </style>
  </defs>
  <g id="Layer_2-2" data-name="Layer_2">
    <g>
      <g>
        <path class="cls-1" d="M96.05,63.32c-.65-6.58-3.45-11.7-8.41-15.34-4.95-3.64-11.67-5.47-20.15-5.47-5.77,0-10.64.8-14.61,2.4-3.97,1.61-7.01,3.82-9.1,6.65-2.1,2.83-3.14,6.04-3.14,9.63-.11,2.99.53,5.6,1.92,7.83,1.39,2.23,3.3,4.15,5.75,5.75,2.45,1.6,5.28,2.99,8.49,4.16,3.21,1.17,6.64,2.16,10.28,2.98l15.02,3.59c7.29,1.63,13.98,3.81,20.08,6.53,6.09,2.72,11.37,6.07,15.83,10.04,4.46,3.97,7.93,8.65,10.41,14.04,2.47,5.39,3.74,11.56,3.79,18.52-.06,10.23-2.65,19.08-7.79,26.56-5.14,7.48-12.54,13.27-22.2,17.38-9.66,4.11-21.29,6.16-34.89,6.16s-25.23-2.07-35.21-6.2c-9.98-4.13-17.76-10.27-23.34-18.4-5.58-8.13-8.5-18.21-8.77-30.23h34.19c.38,5.6,2,10.27,4.85,14,2.86,3.73,6.69,6.53,11.51,8.4,4.82,1.88,10.27,2.82,16.36,2.82s11.19-.87,15.63-2.61c4.43-1.74,7.88-4.16,10.32-7.26,2.45-3.1,3.67-6.66,3.67-10.69,0-3.76-1.1-6.91-3.31-9.47-2.2-2.56-5.41-4.73-9.63-6.53-4.22-1.8-9.37-3.43-15.46-4.9l-18.2-4.57c-14.09-3.43-25.21-8.79-33.38-16.08-8.16-7.29-12.21-17.11-12.16-29.46-.05-10.12,2.65-18.96,8.12-26.52,5.47-7.56,12.99-13.46,22.56-17.71,9.57-4.24,20.46-6.37,32.64-6.37s23.25,2.12,32.52,6.37c9.27,4.24,16.5,10.15,21.66,17.71,5.17,7.56,7.83,16.32,8,26.27h-33.87Z"/>
        <path class="cls-1" d="M158.88,40.89c-5.17,0-9.59-1.72-13.26-5.14-3.67-3.43-5.51-7.56-5.51-12.4s1.85-8.99,5.55-12.45c3.7-3.45,8.11-5.18,13.22-5.18s9.59,1.71,13.26,5.14c3.67,3.43,5.51,7.56,5.51,12.4s-1.84,8.99-5.51,12.44c-3.67,3.46-8.09,5.18-13.26,5.18ZM141.42,182.38V57.04h34.76v125.34h-34.76Z"/>
        <path class="cls-1" d="M224.9,15.26v167.12h-34.76V15.26h34.76Z"/>
        <path class="cls-1" d="M355.71,57.04l-43.82,125.34h-39.17l-43.82-125.34h36.72l26.03,89.68h1.31l25.95-89.68h36.8Z"/>
        <path class="cls-1" d="M416.83,184.83c-12.89,0-23.98-2.62-33.25-7.87-9.28-5.25-16.42-12.7-21.42-22.36-5.01-9.66-7.51-21.09-7.51-34.31s2.5-24.21,7.51-33.95,12.06-17.33,21.18-22.77c9.11-5.44,19.82-8.16,32.11-8.16,8.27,0,15.98,1.32,23.14,3.96,7.15,2.64,13.41,6.6,18.77,11.87,5.36,5.28,9.53,11.9,12.53,19.87,2.99,7.97,4.49,17.29,4.49,27.95v9.55h-105.84v-21.54h73.12c0-5.01-1.09-9.44-3.26-13.3-2.18-3.86-5.18-6.9-9.02-9.1-3.83-2.2-8.28-3.3-13.34-3.3s-9.94,1.21-13.99,3.63c-4.05,2.42-7.22,5.66-9.51,9.71-2.28,4.05-3.46,8.56-3.51,13.51v20.48c0,6.2,1.16,11.56,3.47,16.08,2.31,4.52,5.59,8,9.83,10.45,4.24,2.45,9.27,3.67,15.1,3.67,3.86,0,7.4-.54,10.61-1.63,3.21-1.09,5.96-2.72,8.24-4.9,2.28-2.18,4.03-4.84,5.22-8l32.15,2.12c-1.63,7.73-4.96,14.46-10,20.2-5.03,5.74-11.51,10.2-19.42,13.38-7.91,3.18-17.04,4.77-27.38,4.77Z"/>
        <path class="cls-1" d="M587.55,92.79l-31.83,1.96c-.54-2.72-1.71-5.18-3.51-7.39-1.8-2.2-4.15-3.97-7.06-5.3-2.91-1.33-6.38-2-10.41-2-5.38,0-9.93,1.13-13.63,3.38-3.7,2.26-5.55,5.26-5.55,9.02,0,2.99,1.2,5.52,3.59,7.59,2.39,2.07,6.5,3.73,12.32,4.98l22.69,4.57c12.19,2.5,21.27,6.53,27.25,12.08,5.98,5.55,8.98,12.84,8.98,21.87,0,8.22-2.41,15.42-7.22,21.62-4.82,6.2-11.4,11.03-19.75,14.48-8.35,3.45-17.97,5.18-28.85,5.18-16.59,0-29.8-3.47-39.62-10.4-9.82-6.94-15.57-16.39-17.26-28.36l34.19-1.8c1.03,5.06,3.54,8.91,7.51,11.55,3.97,2.64,9.06,3.96,15.26,3.96s11-1.18,14.73-3.55c3.72-2.37,5.62-5.43,5.67-9.18-.05-3.16-1.39-5.75-4-7.79-2.61-2.04-6.64-3.6-12.08-4.69l-21.71-4.33c-12.24-2.45-21.34-6.69-27.3-12.73-5.96-6.04-8.94-13.73-8.94-23.09,0-8.05,2.19-14.99,6.57-20.81,4.38-5.82,10.55-10.31,18.52-13.46,7.97-3.16,17.31-4.73,28.03-4.73,15.83,0,28.3,3.35,37.42,10.04,9.11,6.69,14.43,15.8,15.95,27.34Z"/>
        <path class="cls-1" d="M665.24,57.04v26.11h-75.49v-26.11h75.49ZM606.89,27.01h34.76v116.86c0,3.21.49,5.7,1.47,7.47.98,1.77,2.35,3.01,4.12,3.71,1.77.71,3.82,1.06,6.16,1.06,1.63,0,3.26-.15,4.9-.45,1.63-.3,2.88-.53,3.76-.69l5.47,25.87c-1.74.54-4.19,1.18-7.35,1.92-3.16.73-6.99,1.18-11.51,1.34-8.38.33-15.71-.79-21.99-3.35-6.28-2.56-11.17-6.53-14.65-11.91-3.48-5.39-5.2-12.19-5.14-20.4V27.01Z"/>
        <path class="cls-1" d="M674.05,182.38V57.04h33.7v21.87h1.31c2.28-7.78,6.12-13.67,11.51-17.67,5.38-4,11.59-6,18.61-6,1.74,0,3.62.11,5.63.33s3.78.52,5.3.9v30.85c-1.63-.49-3.89-.93-6.77-1.31-2.88-.38-5.52-.57-7.92-.57-5.11,0-9.67,1.1-13.67,3.31-4,2.2-7.15,5.26-9.47,9.18-2.31,3.92-3.47,8.43-3.47,13.55v70.91h-34.76Z"/>
        <path class="cls-1" d="M771.65,40.89c-5.17,0-9.59-1.72-13.26-5.14-3.67-3.43-5.51-7.56-5.51-12.4s1.85-8.99,5.55-12.45c3.7-3.45,8.11-5.18,13.22-5.18s9.59,1.71,13.26,5.14c3.67,3.43,5.51,7.56,5.51,12.4s-1.84,8.99-5.51,12.44c-3.67,3.46-8.09,5.18-13.26,5.18ZM754.19,182.38V57.04h34.76v125.34h-34.76Z"/>
      </g>
      <path class="cls-1" d="M836.35,38.96c-2.7,0-5.22-.5-7.57-1.51-2.35-1.01-4.42-2.4-6.21-4.19-1.79-1.79-3.18-3.86-4.19-6.21-1.01-2.35-1.51-4.88-1.51-7.57s.5-5.22,1.51-7.57c1-2.35,2.4-4.42,4.19-6.21,1.79-1.79,3.85-3.18,6.21-4.19,2.35-1,4.88-1.51,7.57-1.51s5.22.5,7.57,1.51c2.35,1.01,4.42,2.4,6.21,4.19,1.79,1.79,3.18,3.86,4.19,6.21,1.01,2.35,1.51,4.88,1.51,7.57s-.5,5.22-1.51,7.57c-1.01,2.35-2.4,4.42-4.19,6.21-1.79,1.79-3.86,3.18-6.21,4.19-2.35,1.01-4.88,1.51-7.57,1.51ZM836.35,33.82c2.66,0,5.08-.64,7.25-1.93,2.16-1.29,3.89-3.02,5.17-5.19,1.28-2.17,1.93-4.58,1.93-7.22s-.65-5.05-1.94-7.22c-1.29-2.16-3.02-3.89-5.19-5.19-2.17-1.29-4.57-1.93-7.22-1.93s-5.03.64-7.2,1.93c-2.16,1.29-3.89,3.02-5.19,5.19-1.29,2.17-1.93,4.58-1.93,7.22s.64,5.05,1.92,7.22c1.28,2.16,3.01,3.89,5.18,5.19,2.16,1.29,4.57,1.93,7.22,1.93ZM829.32,28.24V10.28h8.79c1.14,0,2.18.24,3.13.71.95.47,1.7,1.15,2.27,2.03.56.88.84,1.96.84,3.23s-.29,2.35-.88,3.24c-.59.89-1.36,1.57-2.34,2.03-.97.46-2.05.69-3.24.69h-6.01v-3.38h5.04c.68,0,1.27-.22,1.77-.66.49-.44.74-1.09.74-1.95s-.25-1.53-.74-1.91c-.5-.38-1.08-.57-1.74-.57h-2.95v14.51h-4.68ZM840.79,19.94l4.09,8.3h-5.11l-3.82-8.3h4.85Z"/>
      <g>
        <path class="cls-1" d="M497.07,265.03v-49.85h7.28v18.52h.44c.42-.78,1.03-1.68,1.83-2.7.79-1.02,1.9-1.92,3.31-2.69,1.41-.77,3.28-1.16,5.6-1.16,3.02,0,5.71.76,8.08,2.29s4.23,3.72,5.59,6.6c1.35,2.87,2.03,6.33,2.03,10.37s-.67,7.5-2.02,10.38c-1.35,2.88-3.2,5.1-5.55,6.65-2.35,1.55-5.04,2.32-8.06,2.32-2.27,0-4.13-.38-5.56-1.14-1.44-.76-2.56-1.66-3.37-2.68s-1.44-1.93-1.87-2.73h-.61v5.82h-7.11ZM504.2,246.33c0,2.63.38,4.93,1.14,6.91.76,1.98,1.87,3.53,3.31,4.64s3.21,1.67,5.31,1.67,3.99-.58,5.45-1.74c1.46-1.16,2.57-2.74,3.32-4.73s1.13-4.24,1.13-6.74-.37-4.68-1.11-6.65c-.74-1.96-1.84-3.51-3.31-4.65-1.47-1.14-3.3-1.7-5.49-1.7s-3.89.54-5.34,1.63c-1.45,1.09-2.55,2.6-3.3,4.55-.75,1.95-1.12,4.22-1.12,6.82Z"/>
        <path class="cls-1" d="M539.28,221.87c-1.27,0-2.35-.43-3.25-1.28-.9-.85-1.35-1.87-1.35-3.05s.45-2.23,1.35-3.08c.9-.85,1.98-1.28,3.25-1.28s2.35.43,3.25,1.28c.9.85,1.35,1.87,1.35,3.05s-.45,2.23-1.35,3.08c-.9.85-1.98,1.28-3.25,1.28ZM535.6,265.03v-37.39h7.28v37.39h-7.28Z"/>
        <path class="cls-1" d="M564.65,265.78c-3.5,0-6.56-.8-9.18-2.41s-4.64-3.85-6.09-6.74c-1.44-2.89-2.17-6.26-2.17-10.13s.72-7.27,2.17-10.17c1.44-2.9,3.47-5.16,6.09-6.77s5.67-2.41,9.18-2.41,6.56.8,9.18,2.41,4.64,3.86,6.09,6.77c1.44,2.91,2.17,6.3,2.17,10.17s-.72,7.24-2.17,10.13-3.47,5.14-6.09,6.74-5.67,2.41-9.18,2.41ZM564.67,259.67c2.27,0,4.15-.6,5.65-1.8,1.49-1.2,2.6-2.8,3.32-4.79.72-2,1.08-4.19,1.08-6.6s-.36-4.58-1.08-6.58c-.72-2-1.83-3.61-3.32-4.83-1.49-1.22-3.38-1.83-5.65-1.83s-4.18.61-5.68,1.83-2.61,2.83-3.33,4.83c-.72,2-1.08,4.2-1.08,6.58s.36,4.6,1.08,6.6,1.83,3.59,3.33,4.79c1.5,1.2,3.4,1.8,5.68,1.8Z"/>
        <path class="cls-1" d="M602.08,279.83c-2.97,0-5.52-.39-7.66-1.17-2.13-.78-3.87-1.81-5.22-3.09-1.35-1.28-2.35-2.69-3.02-4.21l6.26-2.58c.44.71,1.03,1.47,1.76,2.28.74.8,1.74,1.49,3.02,2.06,1.27.57,2.92.85,4.93.85,2.76,0,5.04-.67,6.84-2.01,1.8-1.34,2.7-3.47,2.7-6.39v-7.35h-.46c-.44.8-1.07,1.68-1.89,2.65-.82.97-1.94,1.82-3.37,2.53-1.43.71-3.29,1.07-5.57,1.07-2.95,0-5.61-.69-7.97-2.08s-4.23-3.44-5.6-6.16-2.06-6.06-2.06-10.04.68-7.38,2.03-10.22c1.36-2.84,3.22-5.02,5.59-6.54,2.37-1.52,5.05-2.28,8.06-2.28,2.32,0,4.19.39,5.62,1.16,1.43.77,2.54,1.67,3.35,2.69s1.42,1.92,1.86,2.7h.54v-6.06h7.13v38.21c0,3.21-.75,5.85-2.24,7.91-1.49,2.06-3.51,3.59-6.05,4.58-2.54.99-5.4,1.48-8.58,1.48ZM602.01,258.43c2.09,0,3.87-.49,5.32-1.47,1.45-.98,2.56-2.39,3.31-4.24s1.13-4.05,1.13-6.63-.37-4.73-1.12-6.65c-.75-1.91-1.84-3.41-3.29-4.49-1.44-1.08-3.23-1.62-5.35-1.62s-4.02.56-5.48,1.69c-1.46,1.13-2.56,2.66-3.3,4.59-.74,1.93-1.11,4.09-1.11,6.47s.37,4.6,1.12,6.45c.75,1.85,1.85,3.29,3.32,4.33,1.47,1.04,3.28,1.56,5.44,1.56Z"/>
        <path class="cls-1" d="M624.94,265.03v-37.39h7.03v5.94h.39c.68-2.01,1.89-3.6,3.61-4.76,1.73-1.16,3.69-1.74,5.88-1.74.45,0,.99.02,1.62.05.62.03,1.12.07,1.47.12v6.96c-.29-.08-.81-.17-1.56-.28-.75-.1-1.49-.16-2.24-.16-1.72,0-3.25.36-4.59,1.08-1.34.72-2.4,1.72-3.18,2.99-.78,1.27-1.17,2.72-1.17,4.34v22.83h-7.28Z"/>
        <path class="cls-1" d="M658.05,265.85c-2.37,0-4.51-.44-6.43-1.33-1.91-.88-3.43-2.17-4.54-3.86-1.11-1.69-1.67-3.76-1.67-6.21,0-2.11.41-3.85,1.22-5.21.81-1.36,1.91-2.44,3.29-3.24,1.38-.79,2.92-1.4,4.63-1.8,1.7-.41,3.44-.71,5.21-.93,2.24-.26,4.06-.47,5.45-.65,1.4-.17,2.41-.45,3.04-.84s.95-1.02.95-1.9v-.17c0-2.13-.6-3.77-1.79-4.94-1.19-1.17-2.97-1.75-5.32-1.75s-4.38.54-5.78,1.62c-1.4,1.08-2.37,2.28-2.91,3.59l-6.84-1.56c.81-2.27,2-4.11,3.57-5.51,1.57-1.4,3.37-2.43,5.42-3.07,2.04-.64,4.19-.96,6.45-.96,1.49,0,3.08.17,4.76.52,1.68.35,3.25.99,4.72,1.91,1.47.92,2.67,2.24,3.61,3.96.94,1.71,1.41,3.93,1.41,6.66v24.83h-7.11v-5.11h-.29c-.47.94-1.18,1.87-2.12,2.77-.94.91-2.15,1.66-3.63,2.26-1.48.6-3.25.9-5.31.9ZM659.63,260.01c2.01,0,3.74-.4,5.17-1.19,1.44-.79,2.53-1.84,3.29-3.13.75-1.29,1.13-2.67,1.13-4.15v-4.82c-.26.26-.76.5-1.5.72s-1.58.41-2.52.56c-.94.15-1.86.29-2.75.41s-1.64.22-2.24.3c-1.41.18-2.7.48-3.86.9-1.16.42-2.09,1.03-2.78,1.81-.69.79-1.03,1.83-1.03,3.13,0,1.8.67,3.16,2,4.08,1.33.92,3.03,1.38,5.09,1.38Z"/>
        <path class="cls-1" d="M682.42,279.05v-51.41h7.11v6.06h.61c.42-.78,1.03-1.68,1.83-2.7s1.9-1.92,3.31-2.69c1.41-.77,3.28-1.16,5.6-1.16,3.02,0,5.71.76,8.08,2.29,2.37,1.53,4.23,3.72,5.59,6.6s2.03,6.33,2.03,10.37-.67,7.5-2.02,10.38c-1.35,2.88-3.2,5.1-5.55,6.65s-5.04,2.32-8.06,2.32c-2.27,0-4.13-.38-5.56-1.14-1.44-.76-2.56-1.66-3.37-2.68-.81-1.02-1.44-1.93-1.87-2.73h-.44v19.84h-7.28ZM689.55,246.33c0,2.63.38,4.93,1.14,6.91.76,1.98,1.87,3.53,3.31,4.64,1.44,1.11,3.21,1.67,5.31,1.67s3.99-.58,5.45-1.74c1.46-1.16,2.57-2.74,3.32-4.73s1.13-4.24,1.13-6.74-.37-4.68-1.11-6.65c-.74-1.96-1.84-3.51-3.31-4.65s-3.3-1.7-5.49-1.7-3.89.54-5.34,1.63c-1.45,1.09-2.55,2.6-3.3,4.55-.75,1.95-1.12,4.22-1.12,6.82Z"/>
        <path class="cls-1" d="M728.23,242.83v22.2h-7.28v-49.85h7.18v18.55h.46c.88-2.01,2.22-3.61,4.02-4.79,1.8-1.18,4.15-1.78,7.06-1.78,2.56,0,4.81.53,6.73,1.58,1.92,1.06,3.42,2.62,4.48,4.71,1.06,2.09,1.59,4.69,1.59,7.8v23.78h-7.28v-22.9c0-2.74-.71-4.87-2.12-6.39-1.41-1.52-3.38-2.28-5.89-2.28-1.72,0-3.26.37-4.61,1.1s-2.42,1.8-3.19,3.2c-.77,1.4-1.16,3.1-1.16,5.07Z"/>
        <path class="cls-1" d="M763.04,279.05c-1.09,0-2.08-.09-2.97-.26-.89-.17-1.56-.35-2-.55l1.75-5.96c1.33.36,2.52.51,3.55.46s1.96-.44,2.76-1.17c.8-.73,1.51-1.92,2.13-3.58l.9-2.48-13.68-37.87h7.79l9.47,29.01h.39l9.47-29.01h7.81l-15.41,42.38c-.71,1.95-1.62,3.6-2.73,4.95-1.1,1.36-2.42,2.37-3.94,3.06-1.53.68-3.29,1.02-5.31,1.02Z"/>
      </g>
    </g>
  </g>
</svg>