<?xml version="1.0" encoding="UTF-8"?>
<svg xmlns="http://www.w3.org/2000/svg" version="1.1" viewBox="0 0 500 500">
  <defs>
    <style>
      .cls-1 {
        fill: #025086;
      }
    </style>
  </defs>
  <!-- Generator: Adobe Illustrator 28.7.1, SVG Export Plug-In . SVG Version: 1.2.0 Build 142)  -->
  <g>
    <g id="Layer_1">
      <path class="cls-1" d="M408.6,101.3c-8.2-19.8-20.6-37.9-36.2-53.5l-68.4,68.4c9.1,10.7,14.8,24.7,14.8,39.5,0,35.4-31.3,64.3-69.2,64.3s-28-4.1-38.7-10.7l-68.4,68.4c6.6,4.9,14,9.9,22.2,14v114.5c0,14-17.3,29.7-37.1,29.7s-36.2-15.7-36.2-29.7v-194.4c9.1,23.1,23.9,42.8,42.8,59.3l67.5-67.5c-13.2-11.5-21.4-28-21.4-46.1,0-35.4,31.3-64.3,69.2-64.3s33.8,6.6,46.1,16.5l68.4-68.4C333.6,15.7,294.1,0,249.6,0,177.1,0,115.3,42,91.4,102.1V9.1H4.9v388.8c0,56.8,55.2,102.1,123.6,102.1s123.6-46.1,123.6-102.1v102.1h87.3v-56.8l60.1,56.8h95.6v-45.3l-67.5-61.8,67.5-61.8V8.2h-86.5v93.1ZM409.4,278.4l-69.2,64.3v-53.5c31.3-18.1,56-45.3,69.2-78.3v67.5Z"/>
    </g>
  </g>
</svg>