<?xml version="1.0" encoding="UTF-8"?>
<svg id="Layer_2" xmlns="http://www.w3.org/2000/svg" viewBox="0 0 464.58 500">
  <defs>
    <style>
      .cls-1, .cls-2, .cls-3, .cls-4, .cls-5, .cls-6, .cls-7, .cls-8 {
        stroke: #fff;
      }

      .cls-1, .cls-7 {
        stroke-width: 1.5px;
      }

      .cls-1, .cls-8 {
        fill: #45b65b;
      }

      .cls-2, .cls-3, .cls-4, .cls-5, .cls-6, .cls-8 {
        stroke-miterlimit: 10;
        stroke-width: 1.4px;
      }

      .cls-2, .cls-7, .cls-9 {
        fill: #623b96;
      }

      .cls-3 {
        fill: #eee821;
      }

      .cls-4 {
        fill: #ed312e;
      }

      .cls-10 {
        fill: #fff;
      }

      .cls-5 {
        fill: none;
      }

      .cls-6 {
        fill: #893994;
      }
    </style>
  </defs>
  <g id="Layer_1-2" data-name="Layer_1">
    <g>
      <path class="cls-9" d="M464.58,81.15L232.29,0h0L0,81.15v333.9l232.29,84.94h0l232.29-84.94V81.15ZM232.29,15.28l66.06,23.17-40.66,63.9v174.8l-25.39,39.32-25.39-39.32V102.35l-40.66-63.9,66.06-23.17ZM14.42,91.7l141.49-49.63,40.33,63.38v176.56l34.37,55.97H14.57l-.15-246.28ZM17.07,405.88h187.46l-38.98,54.25-148.47-54.25ZM232.29,484.52l-56.36-20.59,41.71-58.04h29.31l41.71,58.04-56.36,20.59ZM299.04,460.13l-38.98-54.25h187.46l-148.47,54.25ZM450.01,337.98h-216.05l34.37-55.97V105.45l40.33-63.38,141.49,49.63-.15,246.28Z"/>
      <g>
        <g>
          <path class="cls-10" d="M134.84,350.83c.24.06.35.18.35.35l.02,9.39c0,.23-.12.35-.35.35h-7.22c-.24.01-.35-.1-.35-.34v-1.82s-12.92.02-12.92.02v7.86s14.1-.02,14.1-.02c.24,0,.35.12.35.35v7.34c.01.23-.1.35-.34.35l-14.09.02v8.22s12.93-.02,12.93-.02v-1.88c.05-.18.17-.29.35-.29h7.22c.23-.01.35.1.35.28l.02,9.39c0,.24-.12.35-.35.35l-32.22.06c-.18,0-.29-.12-.29-.35v-7.16c-.01-.23.1-.35.28-.35h2.88c.24,0,.35-.12.35-.36l-.04-23.77h-3.23c-.18,0-.29-.11-.29-.35v-7.22c-.01-.24.1-.35.28-.35l32.22-.06Z"/>
          <path class="cls-10" d="M189.07,350.62c5.81,0,10.8,1.8,14.98,5.55l.02,7.98c0,.23-.12.35-.35.35h-7.34c-.18.01-.29-.1-.29-.34v-3.64c-.95-.7-2.94-1.29-5.94-1.93h-1.58c-3.34.3-5.05,1.42-5.04,3.3v.18c0,2.23,2,3.75,5.94,4.51,5.28,1.28,8.99,2.62,11.16,3.97,3,2.28,4.53,5.27,4.54,9.03.01,6.4-3.68,10.45-10.96,12.17l-3.64.36c-6.46.01-12.27-2.27-17.39-6.9l.18-.88v-7.1c-.01-.24.1-.35.34-.35h7.28c.23-.01.35.1.35.34v3.82c3,1.93,5.65,2.92,7.99,2.92h1.06c.12,0,.18.06.18.17l.35-.18h.7c2.82,0,4.4-1.18,4.81-3.65v-.35c0-2.29-3.41-4.04-10.22-5.21-4.64-1.28-7.87-3.16-9.75-5.68-1.06-1.88-1.59-3.99-1.6-6.45,0-5.34,3.04-9.1,9.02-11.29,1.41-.47,2.99-.71,4.69-.71h.53Z"/>
          <path class="cls-10" d="M227.52,350.49c9.22-.02,14.86,2.97,16.8,8.89.53,1.35.83,2.99.83,4.87v.12c.01,6.63-3.62,11.1-10.83,13.46-2,.35-3.7.54-5.05.54h-6.87s0,4.18,0,4.18h2.17c.24.05.35.11.35.35v7.34c.01.24-.1.35-.34.35l-13.09.02c-.24,0-.35-.12-.35-.35v-7.34c.05-.24.16-.35.34-.35h2.17s-.04-23.95-.04-23.95h-2.64c-.24,0-.35-.11-.35-.35v-7.39c-.01-.24.1-.35.34-.35l16.55-.03ZM222.39,370.28h7.51c3.05-.02,5.1-1.26,6.21-3.84.23-.88.35-1.58.35-2.05,0-3.87-2.59-5.81-7.76-5.8h-6.34s.02,11.69.02,11.69Z"/>
          <path class="cls-10" d="M289.4,362.12c1.12,2.52,1.65,4.87,1.65,7.04v2.52c.02,5.93-2.97,11.22-9.01,15.8-3.52,2-7.16,3.01-10.91,3.01h-.47c-8.8.02-15.03-4.32-18.8-13.06-.77-2.35-1.18-4.69-1.19-7.04-.01-8.22,4.2-14.45,12.7-18.63,3.05-.89,5.51-1.36,7.51-1.36,8.39-.02,14.56,3.91,18.51,11.71ZM259.54,370.92c0,5.58,2.89,9.39,8.59,11.37.88.23,1.94.35,3.17.35,5.46,0,9.03-3.18,10.9-9.59.12-1.12.17-2.05.17-2.7-.01-5.81-3.01-9.68-8.94-11.72-.76-.12-1.35-.11-1.82-.11h-1.53c-4.87.01-8.33,3.01-10.37,9.06-.12,1.12-.17,1.94-.17,2.52v.82Z"/>
          <path class="cls-10" d="M317.49,350.4c8.22-.02,13.15,3.56,14.75,10.71.12.65.18,1.47.18,2.35v.12c.01,5.58-2.8,9.51-8.37,11.93v.18c3.06,4.16,4.65,6.39,4.71,6.68h5.34c.24.05.35.17.35.34v7.4c.01.23-.1.29-.34.29l-12.74.02c-.18,0-.29-.06-.29-.29v-3.87c0-.59-2.13-3.69-6.42-9.2h-6.69s0,5.35,0,5.35h2.17c.24.05.35.17.35.35v7.4c.01.23-.1.29-.34.29l-12.56.02c-.24,0-.35-.06-.35-.29v-7.4c.05-.24.16-.35.34-.35h1.82s-.04-24.13-.04-24.13h-2.52c-.18,0-.29-.11-.29-.35v-7.16c-.01-.24.1-.35.28-.35l20.66-.04ZM307.96,369.19l9.57-.02c2.82,0,4.81-1.24,6.04-3.71,0-.23,0-.88.11-1.88,0-3.05-1.89-4.81-5.7-5.15l-10.04.02.02,10.74Z"/>
          <path class="cls-10" d="M372.49,350.3c.18,0,.29.12.29.35l.02,9.86c0,.24-.12.35-.29.35h-7.22c-.24.01-.35-.1-.35-.34v-2s-4.17,0-4.17,0l.04,23.77h2c.24.05.35.17.35.35v7.4c.01.23-.1.29-.34.29l-12.56.02c-.23,0-.35-.06-.35-.29v-7.4c.05-.24.1-.35.34-.35h1.82s-.04-23.77-.04-23.77h-3.99s0,2,0,2c0,.24-.12.35-.35.35h-7.39c-.24.01-.35-.1-.35-.34l-.02-9.86c.06-.24.17-.35.35-.35l32.22-.06Z"/>
        </g>
        <g>
          <path class="cls-1" d="M381.31,306.82c-26.16,0-48.17-12.52-65.44-37.23l-.28-.4-.27-.45c-8.18-13.7-12.32-27.86-12.32-42.06v-5.69c0-25.02,11.11-46.64,33.02-64.27l.41-.33.44-.3c14.68-10.11,29.98-15.24,45.46-15.24h6.5c20.27,0,39.38,7.47,56.82,22.21,7.16,4.37,8.69,9.91,8.69,13.84v30.68c0,8.48-6.65,15.13-15.13,15.13h-24.78c-8.48,0-15.13-6.65-15.13-15.13v-8.24c-3.71-2.2-7.89-3.25-12.9-3.25h-2.24c-10.89,0-17.62,6.03-22.42,20.15-.69,4.19-.84,6.43-.84,7.59,0,13.98,5.98,22.43,19.37,27.37,1.39.36,2.8.57,3.9.57h2.85c7.86,0,16.57-4.56,25.89-13.56l7.07-6.83,8.8,4.39c1.9.95,3.55,1.77,22.36,21.55l3.83,4.03v11.16l-3.41,3.92c-17.52,20.16-39.03,30.38-63.93,30.38h-6.3Z"/>
          <path class="cls-7" d="M381.31,296.92c-18.54,0-34.86-7.42-48.51-22.05l5.38-14.36,17.48,9.2,7.38-17.05c3.82,3.27,8.55,5.94,14.12,7.96l.1.04.1.03c2.33.65,4.74,1,6.8,1h2.84c10.52,0,21.54-5.5,32.77-16.35l2.04-1.97,2.54,1.27c1.32.66,7.92,7.23,19.6,19.51l1.1,1.16v3.51l-.98,1.13c-15.56,17.9-34.55,26.98-56.45,26.98h-6.3Z"/>
          <path class="cls-7" d="M323.9,263.8l-.07-.13c-7.25-12.15-10.93-24.6-10.93-37v-5.69c0-21.87,9.87-40.9,29.33-56.55l.12-.09.12-.08c.47-.32.94-.64,1.41-.95v28.47l14.96-8.49v16.21c-2.62,3.8-4.75,8.32-6.68,14.13l-.07.2-.04.21c-.71,4.19-1.07,7.49-1.07,9.79,0,6.74,1.23,12.75,3.67,17.9l-4.88,11.27-18.08-9.51-7.67,20.48s-.12-.17-.12-.17Z"/>
          <path class="cls-7" d="M414.42,212.81c-3.03,0-5.23-2.2-5.23-5.23v-13.28l-1.03-.82c-6.13-4.9-13.26-7.28-21.77-7.28h-2.24c-4.87,0-9.32.94-13.27,2.79v-26.36l-14.96,8.49v-14.47c8.72-3.91,17.6-5.89,26.41-5.89h6.5c18.03,0,35.14,6.81,50.87,20.24l.19.17.22.13c2.95,1.7,4.33,3.48,4.33,5.62v30.68c0,3.03-2.2,5.23-5.23,5.23h-24.79Z"/>
        </g>
        <g>
          <polygon class="cls-8" points="147.31 177.78 147.31 140.15 82.72 140.15 82.72 177.78 87.45 177.78 62.21 208.7 62.21 177.78 78.5 177.78 78.5 140.15 10.17 140.15 10.17 177.78 24.02 177.78 24.02 269.9 10.17 269.9 10.17 307.53 78.5 307.53 78.5 269.9 62.21 269.9 62.21 244.39 88.1 269.9 82.72 269.9 82.72 307.53 147.31 307.53 147.31 269.9 133.04 269.9 95.82 225.52 131.92 177.78 147.31 177.78"/>
          <polygon class="cls-2" points="55.05 233.95 55.05 277.06 71.34 277.06 71.34 300.36 17.33 300.36 17.33 277.06 31.19 277.06 31.19 170.62 17.33 170.62 17.33 147.31 71.34 147.31 71.34 170.62 55.05 170.62 55.05 221.94 55.05 233.95"/>
          <polygon class="cls-2" points="140.14 170.62 140.14 147.31 89.88 147.31 89.88 170.62 100.86 170.62 63.35 218.06 63.68 236.01 103.03 277.06 89.88 277.06 89.88 300.36 140.14 300.36 140.14 277.06 129.47 277.06 86.08 225.75 128.12 170.62 140.14 170.62"/>
        </g>
        <g>
          <path class="cls-8" d="M304.38,145.1l-5.62-16.28-3.13,6.4c.3-12.21-3.62-22-11.59-28.61-19.16-15.9-36.08-31.25-36.25-31.41l-10.9-9.9-3.03,38.67-1.56-3.45-1.77,3.42-2.76-38.63-10.9,9.9c-.17.15-17.08,15.49-36.25,31.41-7.97,6.61-11.89,16.4-11.59,28.61l-3.13-6.4-5.62,16.28c-.43,1.26-10.38,31.1,11.44,59.4l8.36,10.84,5.32-16.77c6.15-.52,18.43-.13,28.34,9.04v63.6l-12,13.74,30.61,37.76,30.61-37.76-12-13.74v-63.6c9.91-9.18,22.21-9.56,28.34-9.04l5.32,16.78,8.36-10.84c21.82-28.3,11.87-58.14,11.44-59.4ZM218.97,120.49c-1.97,2.26-4.41,5.15-7.4,8.9-1.61,2.02-2.91,4.05-3.96,6.07-1.5-4.19-2.53-7.8-2.6-9.77.31-2.94,5.97-11.87,13.06-20.89l7.82,7.29c-.23.33-.47.66-.7.98h-.04s0,.04,0,.06c-1.09,1.48-2.16,2.8-3.09,3.89-.52.58-1.1,1.22-1.74,1.95l-1.36,1.54ZM257.02,135.46c-1.05-2.02-2.36-4.05-3.96-6.08-2.54-3.2-4.69-5.76-6.49-7.85l.09-.04c-.16-.13-.32-.28-.48-.42-1.5-1.73-2.74-3.11-3.75-4.24-.39-.44-.79-.88-1.16-1.3-.84-1.17-1.63-2.38-2.36-3.6l7.67-7.14c7.09,9.02,12.75,17.95,13.06,20.9-.07,1.97-1.1,5.58-2.6,9.77Z"/>
          <g>
            <g>
              <path class="cls-2" d="M297.61,147.44s9.37,27.12-10.34,52.69l-2.53-8.01s-23.3-5.45-40.06,11.56c-.6.61-.91.95-.91.95-2.03-2.63-3.45-5.91-4.43-9.18.47-.1,16.95-3.63,19.34-17.58,0,0-6.5,3.39-21.61,3.68-.51-8.19.83-14.7.83-14.7,4.13-.06,7.92-.11,11.41-.19,15.42-.3,24.97-.79,31.5-2.54h0c8.8-2.38,12.08-7.06,16.8-16.69Z"/>
              <path class="cls-6" d="M279.47,112.11c19.31,16.04,1.7,51.29,1.35,52.01h0c-6.53,1.76-16.08,2.25-31.5,2.55v-.02c5.13-4.49,17.27-32.49,17.47-40.88.2-8.39-19.51-31.42-19.51-31.42l-5.66,5.27,1.37-19.13s16.98,15.41,36.49,31.61Z"/>
              <path class="cls-4" d="M237.06,181.57c15.11-.3,21.61-3.68,21.61-3.68-2.39,13.95-18.87,17.48-19.34,17.58-2.13-7.01-2.27-13.9-2.27-13.9Z"/>
              <path class="cls-2" d="M243.77,273.89l9.88,11.32-21.32,27.41-21.33-27.41,9.89-11.32v-69.26s9.07,4.3,11.45,20.24c2.37-15.94,11.45-20.24,11.45-20.24v69.26Z"/>
              <path class="cls-2" d="M247.46,133.84c12.62,15.88,1.84,32.82,1.84,32.82v.02c-3.49.07-7.28.13-11.41.19-1.88.04-3.55.03-5.57.06-2.03-.03-3.7-.02-5.58-.06-4.12-.06-7.92-.11-11.41-.19v-.02s-10.77-16.94,1.85-32.82c12.62-15.87,15-15.53,15.14-20.59.13,5.07,2.52,4.72,15.14,20.59Z"/>
              <path class="cls-3" d="M239.33,195.46c.98,3.26,2.4,6.55,4.43,9.18,0,0-9.08,4.3-11.45,20.24-2.38-15.94-11.45-20.24-11.45-20.24,2.03-2.63,3.45-5.91,4.43-9.18,2.12-7.01,2.26-13.9,2.26-13.9,0,0,2.59.38,9.49,0,0,0,.14,6.89,2.27,13.9Z"/>
              <path class="cls-6" d="M237.89,166.86s-1.34,6.51-.83,14.7c-6.9.38-9.49,0-9.49,0,.51-8.19-.83-14.7-.83-14.7,1.88.04,3.55.03,5.58.06,2.02-.03,3.69-.02,5.57-.06Z"/>
              <path class="cls-2" d="M226.74,166.86s1.34,6.51.83,14.7c-15.1-.3-21.61-3.68-21.61-3.68,2.44,14.15,19.35,17.58,19.35,17.58-.98,3.26-2.4,6.55-4.43,9.18,0,0-.32-.35-.92-.95-16.75-17.01-40.06-11.56-40.06-11.56l-2.53,8.01c-19.71-25.57-10.34-52.69-10.34-52.69,4.71,9.63,8.01,14.32,16.8,16.69h0c6.53,1.76,16.09,2.25,31.5,2.55,3.49.07,7.29.13,11.41.19Z"/>
              <path class="cls-4" d="M227.57,181.57s-.14,6.89-2.26,13.9c0,0-16.91-3.43-19.35-17.58,0,0,6.51,3.39,21.61,3.68Z"/>
              <path class="cls-6" d="M221.67,80.5l1.37,19.13-5.66-5.27s-19.72,23.03-19.52,31.42,12.35,36.39,17.47,40.88v.02c-15.41-.3-24.97-.79-31.5-2.54h0c-.36-.73-17.97-35.98,1.36-52.02,19.51-16.2,36.49-31.61,36.49-31.61Z"/>
            </g>
            <g>
              <path class="cls-5" d="M215.33,166.66s-10.77-16.94,1.85-32.82c12.62-15.87,15-15.53,15.14-20.59"/>
              <path class="cls-5" d="M232.32,166.92c-2.03-.03-3.7-.02-5.58-.06"/>
              <path class="cls-5" d="M183.82,164.12c-.36-.72-17.97-35.97,1.36-52.01,19.51-16.2,36.49-31.61,36.49-31.61l1.37,19.13-5.66-5.27s-19.72,23.03-19.52,31.42,12.35,36.39,17.47,40.88v.02"/>
              <path class="cls-5" d="M232.32,312.62l-21.33-27.41,9.89-11.32v-69.26s-.32-.35-.92-.95"/>
              <path class="cls-5" d="M219.95,203.68c-16.75-17.01-40.06-11.56-40.06-11.56l-2.53,8.01c-19.71-25.57-10.34-52.69-10.34-52.69,4.71,9.63,8.01,14.32,16.8,16.69h0c6.53,1.76,16.09,2.25,31.5,2.55,3.49.07,7.29.13,11.41.19,0,0,1.34,6.51.83,14.7-15.1-.3-21.61-3.68-21.61-3.68,2.44,14.15,19.35,17.58,19.35,17.58"/>
              <path class="cls-5" d="M232.32,224.88c-2.38-15.94-11.45-20.24-11.45-20.24,2.03-2.63,3.45-5.91,4.43-9.18,2.12-7.01,2.26-13.9,2.26-13.9,0,0,2.59.38,9.49,0,0,0,.14,6.89,2.27,13.9.98,3.26,2.4,6.55,4.43,9.18,0,0-9.08,4.3-11.45,20.24"/>
              <path class="cls-5" d="M249.3,166.66s10.77-16.94-1.84-32.82c-12.63-15.87-15.01-15.53-15.14-20.59"/>
              <path class="cls-5" d="M232.32,166.92c2.02-.03,3.69-.02,5.57-.06"/>
              <path class="cls-5" d="M280.81,164.12c.36-.72,17.97-35.97-1.35-52.01-19.52-16.2-36.49-31.61-36.49-31.61l-1.37,19.13,5.66-5.27s19.71,23.03,19.51,31.42c-.2,8.39-12.34,36.39-17.47,40.88v.02"/>
              <path class="cls-5" d="M232.32,312.62l21.32-27.41-9.88-11.32v-69.26s.31-.35.91-.95"/>
              <path class="cls-5" d="M244.67,203.68c16.76-17.01,40.06-11.56,40.06-11.56l2.53,8.01c19.72-25.57,10.34-52.69,10.34-52.69-4.71,9.63-8,14.32-16.8,16.69h0c-6.53,1.76-16.08,2.25-31.5,2.55-3.49.07-7.28.13-11.41.19,0,0-1.34,6.51-.83,14.7,15.11-.3,21.61-3.68,21.61-3.68-2.39,13.95-18.87,17.48-19.34,17.58h0"/>
            </g>
          </g>
        </g>
        <rect class="cls-10" x="144.2" y="367.64" width="22.1" height="6.61" rx="2" ry="2"/>
      </g>
    </g>
  </g>
</svg>