<?xml version="1.0" encoding="UTF-8"?>
<svg xmlns="http://www.w3.org/2000/svg" version="1.1" viewBox="0 0 500 500">
  <defs>
    <style>
      .cls-1 {
        fill: #2b01be;
      }

      .cls-2 {
        fill: #0190ff;
      }
    </style>
  </defs>
  <!-- Generator: Adobe Illustrator 28.7.1, SVG Export Plug-In . SVG Version: 1.2.0 Build 142)  -->
  <g>
    <g id="Layer_1">
      <g>
        <path id="path4664" class="cls-2" d="M26.4,222.3c16-58.3,82.4-72.2,143.6-73.9,50.3-1.4,106.4,5.2,106.4,5.2l-26.4,96.4s-56.1-6.7-106.4-5.2c-61.2,1.7-127.7,15.6-143.6,73.9l26.4-96.4Z"/>
        <path id="path4668" class="cls-1" d="M408.2,402.9C228.2,391.6,19,298.8,26.4,222.3L1.5,313.2c-7.5,78,186.5,170.6,380.4,186.1l26.4-96.4Z"/>
        <path id="path4672" class="cls-1" d="M473.6,277.7c-16,58.3-82.4,72.2-143.6,73.9-50.3,1.4-106.4-5.2-106.4-5.2l26.4-96.4s56.1,6.7,106.4,5.2c61.2-1.7,127.7-15.6,143.6-73.9l-26.4,96.4Z"/>
        <path id="path4674" class="cls-2" d="M91.8,97.1c180,11.2,389.3,104.1,381.9,180.5l24.8-90.8C506,108.9,311.9,16.3,118.1.8l-26.4,96.4Z"/>
      </g>
    </g>
  </g>
</svg>