<?xml version="1.0" encoding="UTF-8"?>
<svg xmlns="http://www.w3.org/2000/svg" version="1.1" viewBox="0 0 500 500">
  <defs>
    <style>
      .cls-1 {
        fill: #fff;
      }

      .cls-2 {
        fill: #eb0a1e;
      }
    </style>
  </defs>
  <!-- Generator: Adobe Illustrator 28.7.1, SVG Export Plug-In . SVG Version: 1.2.0 Build 142)  -->
  <g>
    <g id="Layer_1">
      <g>
        <rect class="cls-2" x="0" width="500" height="500"/>
        <path class="cls-1" d="M250,136.5c-94.4,0-166.7,48.7-166.7,113.5s70.4,113.5,166.7,113.5,166.7-50.8,166.7-113.5c0-64.8-72.3-113.5-166.7-113.5ZM353.9,185.2c3.5,14-12.8,31.5-65.3,37.2-3.5-35.6-14.1-65.7-31.6-72.1,23.6.7,45.9,4.7,65.4,11.7,18.2,6.9,29.5,15.6,31.4,23.2ZM276.2,249.5c0,45.2-13.6,63.9-26.2,63.9s-26.2-18.7-26.2-63.9,0-.3,0-.5c8.4.7,17.2,1.1,26.2,1.1s17.8-.4,26.2-1.1c0,.2,0,.3,0,.5ZM250,224.3c-8.8,0-17-.3-24.6-.7,4-29.5,14.6-46.7,24.6-46.7s20.6,17.2,24.6,46.7c-7.6.5-15.7.7-24.6.7ZM146.1,185.2c1.9-7.5,13.1-16.2,31.1-23.1,19.6-7.1,42-11.2,65.7-11.8-17.5,6.4-28.1,36.5-31.6,72.1-52.5-5.7-68.8-23.2-65.3-37.2ZM107.9,245.9c0-19.1,6.4-35.6,17.5-49.3,1.4,25.3,35.7,44.2,84.6,50.9,0,.7,0,1.3,0,2,0,61.2,15.7,93.6,33.1,100.3-74.6-2.7-135.2-48.6-135.2-103.8ZM256.6,349.7c17.5-7,33.4-41.8,33.4-100.3s0-1.3,0-2c48.9-6.6,83.2-25.5,84.6-50.9,11.1,13.7,17.5,30.2,17.5,49.3,0,55.2-60.7,101.2-135.5,103.8Z"/>
      </g>
    </g>
  </g>
</svg>